<?xml version="1.0" standalone="no"?>
<!DOCTYPE svg PUBLIC "-//W3C//DTD SVG 20010904//EN"
 "http://www.w3.org/TR/2001/REC-SVG-20010904/DTD/svg10.dtd">
<svg version="1.0" xmlns="http://www.w3.org/2000/svg"
 width="321.000000pt" height="321.000000pt" viewBox="0 0 321.000000 321.000000"
 preserveAspectRatio="xMidYMid meet">
<metadata>
Created by potrace 1.11, written by Peter Selinger 2001-2013
</metadata>
<g transform="translate(0.000000,321.000000) scale(0.100000,-0.100000)"
fill="#000000" stroke="none">
<path d="M1889 2936 c-25 -7 -76 -34 -114 -59 -39 -26 -75 -47 -81 -47 -6 0
-75 -31 -152 -70 -222 -111 -389 -158 -622 -175 -58 -5 -116 -2 -183 9 -54 9
-102 14 -107 11 -5 -3 -30 -8 -56 -11 -60 -7 -102 -28 -113 -57 -4 -12 -11
-99 -14 -192 -3 -94 -11 -260 -18 -370 l-13 -199 -46 -61 c-79 -104 -84 -134
-76 -449 11 -391 16 -446 52 -498 43 -64 176 -191 252 -242 96 -64 221 -122
337 -157 55 -16 107 -34 116 -39 9 -5 53 -14 97 -21 45 -7 80 -15 78 -18 -2
-3 10 -6 27 -7 18 0 73 -6 122 -12 50 -7 164 -12 255 -12 142 0 188 4 330 31
91 16 221 48 290 70 135 44 310 116 310 129 0 4 14 13 31 19 58 20 218 167
279 256 65 94 70 130 70 479 0 287 -2 317 -20 372 -28 81 -104 181 -197 256
-154 125 -145 113 -153 214 -5 49 -12 100 -18 114 -13 33 -64 108 -283 415
-234 327 -233 326 -289 331 -25 2 -65 -3 -91 -10z m885 -1741 c-4 -8 -10 -15
-16 -15 -5 0 -7 -4 -3 -9 3 -5 1 -12 -4 -15 -13 -9 -7 19 8 38 17 20 22 20 15
1z m-44 -63 c0 -4 -5 -14 -11 -22 -9 -13 -10 -12 -5 3 7 22 -3 22 -19 0 -12
-16 -35 -11 -35 9 0 6 6 6 15 -2 13 -11 14 -10 10 1 -4 10 3 15 20 17 14 1 25
-2 25 -6z m-61 -46 c8 -10 9 -16 1 -21 -6 -4 -9 -1 -8 7 2 7 -3 12 -9 11 -7
-2 -13 2 -13 7 0 14 16 12 29 -4z m-39 -21 c0 -7 -8 -12 -17 -10 -27 4 -35 -5
-21 -23 10 -12 10 -14 0 -8 -7 4 -14 1 -18 -8 -4 -9 -15 -13 -34 -11 -16 2
-34 -2 -40 -10 -7 -8 -16 -13 -20 -10 -5 3 -12 0 -16 -6 -5 -8 -3 -9 6 -4 9 5
11 4 6 -4 -6 -9 -11 -9 -21 -1 -11 9 -19 8 -35 -3 -20 -14 -21 -15 -3 -20 15
-4 14 -5 -4 -6 -13 0 -23 3 -23 9 0 5 -7 7 -15 4 -8 -4 -13 -10 -10 -14 3 -5
0 -12 -6 -16 -8 -4 -9 -3 -5 4 4 7 1 12 -8 12 -9 0 -16 -5 -16 -11 0 -6 -8 -8
-20 -4 -10 3 -28 1 -39 -4 -11 -6 -36 -14 -56 -17 -21 -3 -47 -8 -59 -10 -11
-3 -46 -9 -76 -14 -150 -24 -186 -15 -50 13 182 37 214 47 415 126 72 29 102
36 107 28 4 -7 0 -14 -9 -18 -9 -3 -12 -8 -7 -12 15 -9 35 7 37 31 0 11 5 18
9 16 4 -3 8 -1 8 3 0 5 9 9 20 10 11 1 20 -4 20 -12z m-119 -78 c-6 -8 -8 -17
-4 -20 3 -4 1 -7 -5 -7 -15 0 -15 13 0 28 16 16 23 15 9 -1z m176 6 c-4 -3 -2
-11 3 -18 7 -8 5 -12 -4 -12 -8 0 -12 7 -11 16 5 22 4 21 12 21 3 0 3 -3 0 -7z
m7 -67 c-3 -9 -10 -16 -15 -16 -5 0 -4 9 3 20 14 22 21 20 12 -4z m-130 -2 c3
-8 2 -12 -4 -9 -6 3 -10 10 -10 16 0 14 7 11 14 -7z m146 -34 c0 -5 -4 -10
-10 -10 -5 0 -10 5 -10 10 0 6 5 10 10 10 6 0 10 -4 10 -10z m-90 -42 c0 -5
-7 -3 -15 6 -8 8 -15 18 -15 22 0 3 7 1 15 -6 8 -7 15 -17 15 -22z m33 17 c-3
-9 -8 -14 -10 -11 -3 3 -2 9 2 15 9 16 15 13 8 -4z m97 11 c0 -3 -4 -8 -10
-11 -5 -3 -10 -1 -10 4 0 6 5 11 10 11 6 0 10 -2 10 -4z m-60 -16 c0 -5 -2
-10 -4 -10 -3 0 -8 5 -11 10 -3 6 -1 10 4 10 6 0 11 -4 11 -10z m-137 -15 c-3
-9 -8 -14 -10 -11 -3 3 -2 9 2 15 9 16 15 13 8 -4z m108 -18 c-10 -9 -11 -8
-5 6 3 10 9 15 12 12 3 -3 0 -11 -7 -18z m69 13 c0 -5 -7 -7 -15 -4 -8 4 -15
8 -15 10 0 2 7 4 15 4 8 0 15 -4 15 -10z m-205 -18 c-3 -3 -11 0 -18 7 -9 10
-8 11 6 5 10 -3 15 -9 12 -12z m36 -9 c-12 -20 -14 -14 -5 12 4 9 9 14 11 11
3 -2 0 -13 -6 -23z m46 -4 c-3 -10 0 -20 6 -22 6 -2 4 -6 -5 -9 -13 -5 -15 -1
-11 24 3 22 1 28 -8 23 -8 -5 -10 -4 -5 4 11 17 29 2 23 -20z m98 11 c-3 -5 1
-11 7 -14 7 -3 4 -4 -6 -3 -10 1 -21 -3 -23 -10 -3 -8 5 -11 24 -8 15 2 22 2
16 -1 -7 -3 -13 -10 -13 -15 0 -6 5 -7 10 -4 6 3 10 1 10 -4 0 -6 5 -11 11
-11 5 0 7 4 4 10 -4 6 1 7 11 3 11 -4 15 -3 10 5 -3 6 -2 13 3 16 5 4 12 2 15
-3 4 -5 -7 -19 -23 -30 -28 -21 -33 -34 -18 -57 3 -6 -2 -19 -13 -29 -15 -14
-17 -22 -9 -39 9 -17 7 -17 -11 4 -15 17 -20 19 -16 8 3 -10 1 -18 -4 -18 -6
0 -9 -6 -7 -12 1 -8 -7 -12 -21 -12 -15 1 -21 -4 -20 -15 2 -9 -4 -17 -12 -17
-32 -3 -34 -5 -20 -14 9 -6 10 -10 3 -10 -6 0 -19 7 -27 16 -16 15 -17 15 -20
-6 0 -5 -12 -17 -25 -26 -22 -16 -24 -16 -35 2 -6 10 -11 26 -11 34 0 8 -5 15
-12 15 -6 0 -15 4 -20 8 -4 5 -1 7 7 5 10 -2 15 5 15 22 0 15 -5 24 -13 22 -8
-1 -11 2 -7 8 3 6 11 8 16 5 5 -4 9 -2 9 4 0 5 -6 11 -12 14 -7 2 -10 7 -7 11
3 4 17 -2 30 -13 23 -19 23 -20 4 -21 -16 0 -17 -2 -5 -9 17 -11 33 -4 27 12
-2 7 0 21 6 32 5 11 6 17 2 12 -12 -10 -46 23 -37 37 3 6 7 23 8 39 3 47 3 48
23 35 10 -6 17 -17 14 -24 -2 -6 1 -15 7 -19 8 -5 8 -11 -1 -21 -19 -23 -2
-16 21 8 11 12 20 17 20 12 0 -6 -5 -15 -12 -22 -15 -15 -6 -24 15 -17 8 4 14
14 12 23 -4 29 6 34 32 16 20 -13 25 -13 21 -2 -3 7 0 22 8 32 7 11 11 23 7
29 -4 6 -1 7 7 2 10 -6 12 -4 7 8 -4 11 -2 14 8 10 8 -3 13 -9 10 -13z m-57
-11 c10 -13 9 -19 -5 -30 -16 -13 -17 -12 -5 3 9 11 10 18 2 23 -5 3 -10 11
-10 17 0 6 1 9 3 7 1 -2 8 -11 15 -20z m102 7 c0 -3 -4 -8 -10 -11 -5 -3 -10
-1 -10 4 0 6 5 11 10 11 6 0 10 -2 10 -4z m-175 -35 c3 -5 2 -12 -3 -15 -5 -3
-9 1 -9 9 0 17 3 19 12 6z m206 -58 c12 -16 12 -17 -2 -6 -9 7 -20 9 -24 5 -5
-4 -5 -1 -1 6 9 16 11 15 27 -5z m-361 -9 c0 -2 -7 -4 -15 -4 -8 0 -15 4 -15
10 0 5 7 7 15 4 8 -4 15 -8 15 -10z m100 -46 c0 -12 -6 -9 -26 13 -19 22 -19
22 4 8 12 -8 22 -17 22 -21z m255 2 c-3 -5 -11 -10 -16 -10 -6 0 -7 5 -4 10 3
6 11 10 16 10 6 0 7 -4 4 -10z m-310 -140 c3 -5 1 -10 -4 -10 -6 0 -11 5 -11
10 0 6 2 10 4 10 3 0 8 -4 11 -10z m95 -25 c-33 -19 -49 -19 -24 0 10 8 26 14
34 14 9 0 4 -6 -10 -14z"/>
<path d="M2664 769 c-6 -11 31 -30 41 -21 5 4 5 2 1 -5 -3 -6 -2 -14 3 -18 6
-3 8 -12 4 -20 -3 -8 0 -15 7 -15 7 0 6 -6 -4 -16 -23 -23 -20 -30 4 -9 12 11
17 22 11 29 -5 6 -7 21 -5 33 3 15 -3 24 -16 28 -11 4 -18 10 -16 14 3 4 -2 8
-10 8 -8 0 -17 -4 -20 -8z"/>
<path d="M2520 760 c8 -5 10 -10 3 -10 -6 0 -9 -9 -5 -22 4 -16 2 -19 -9 -13
-10 6 -11 5 -4 -3 15 -16 67 -24 62 -9 -2 7 -11 11 -21 9 -18 -3 -22 13 -6 23
13 8 -6 35 -24 35 -6 0 -4 -5 4 -10z"/>
<path d="M2620 739 c-8 -5 -10 -9 -5 -9 6 0 -1 -9 -15 -20 -14 -10 -25 -22
-25 -27 0 -19 -50 -73 -63 -68 -7 2 -10 1 -7 -4 3 -5 1 -12 -5 -16 -6 -4 -7
-12 -3 -18 4 -7 8 -18 9 -25 3 -20 7 -22 32 -15 21 5 21 6 5 19 -15 12 -15 13
-2 8 22 -7 55 36 36 48 -20 13 -30 9 -18 -6 13 -16 1 -28 -33 -33 -15 -3 -17
-1 -7 11 7 8 20 12 29 9 15 -6 15 -5 3 10 -13 17 -11 19 21 21 10 1 17 6 15
11 -1 6 -5 9 -10 7 -4 -1 -2 6 4 17 8 12 19 16 33 13 18 -5 18 -7 4 -10 -23
-4 -23 -16 -1 -33 15 -12 16 -12 10 3 -4 11 -2 15 6 12 8 -3 13 5 15 20 1 19
-3 24 -17 21 -10 -2 -24 1 -32 6 -10 6 -10 9 -1 9 22 0 27 2 39 11 6 6 23 7
37 3 22 -5 25 -3 20 10 -4 9 -14 16 -23 14 -9 -1 -21 0 -26 4 -6 4 -17 3 -25
-3z m-90 -189 c0 -5 -2 -10 -4 -10 -3 0 -8 5 -11 10 -3 6 -1 10 4 10 6 0 11
-4 11 -10z"/>
<path d="M2634 697 c-4 -7 -4 -9 1 -5 4 4 14 3 22 -3 8 -7 13 -8 13 -1 0 15
-28 23 -36 9z"/>
<path d="M2669 673 c-20 -22 -21 -25 -5 -19 14 5 11 -2 -10 -21 -22 -21 -31
-25 -37 -15 -5 7 -13 10 -18 6 -6 -3 -3 -12 8 -20 14 -11 15 -13 2 -8 -18 6
-34 -22 -19 -31 6 -4 10 2 10 11 0 14 3 15 12 6 7 -7 17 -12 23 -12 6 0 5 3
-2 8 -8 5 -8 12 3 26 8 11 14 15 14 10 0 -6 6 -11 14 -11 7 0 13 7 11 16 -1 9
1 21 5 26 7 10 20 55 16 55 -1 0 -13 -12 -27 -27z"/>
<path d="M2546 674 c-9 -23 -2 -28 13 -10 7 8 8 17 3 20 -6 3 -13 -1 -16 -10z"/>
</g>
</svg>
